<svg width="565" height="227" viewBox="0 0 565 227" fill="none" xmlns="http://www.w3.org/2000/svg">
<path fill-rule="evenodd" clip-rule="evenodd" d="M52.2684 196.61L36.2821 104.113L67.5075 122.141C94.5495 75.3027 125.991 44.8824 190.052 54.1121C146.003 70.3142 122.77 98.5349 109.141 146.178L140.367 164.206L52.2684 196.61Z" fill="black"/>
<path d="M168.814 120.432C168.021 119.83 167.365 119.078 166.846 118.176C166.354 117.273 165.957 116.316 165.656 115.305C165.383 114.293 165.191 113.254 165.082 112.187C165 111.094 164.973 110.055 165 109.07C165.246 108.332 165.547 107.662 165.902 107.06C166.258 106.432 166.654 105.844 167.092 105.297C167.529 104.723 167.98 104.189 168.445 103.697C168.938 103.178 169.416 102.658 169.881 102.139C170.045 102.139 170.195 102.18 170.332 102.262C170.441 101.961 170.605 101.701 170.824 101.482C171.043 101.264 171.275 101.072 171.521 100.908C171.768 100.717 172.014 100.539 172.26 100.375C172.506 100.184 172.711 99.9648 172.875 99.7187C173.559 99.5546 174.16 99.3222 174.68 99.0214C175.227 98.7206 175.746 98.3925 176.238 98.037C176.73 97.6816 177.236 97.3535 177.756 97.0527C178.275 96.7519 178.877 96.5195 179.561 96.3554C179.807 96.082 180.107 95.8495 180.463 95.6581C180.846 95.4667 181.215 95.289 181.57 95.1249C181.953 94.9609 182.309 94.7831 182.637 94.5917C182.992 94.4003 183.279 94.1406 183.498 93.8124C183.662 94.0312 183.895 94.1132 184.195 94.0585C184.496 93.9765 184.77 93.8945 185.016 93.8124C185.18 93.7851 185.316 93.8124 185.426 93.8945C185.535 93.9765 185.631 94.0722 185.713 94.1816C185.822 94.2636 185.904 94.3183 185.959 94.3456C186.041 94.373 186.123 94.291 186.205 94.0995C186.424 94.1269 186.479 94.2226 186.369 94.3867C186.287 94.5507 186.232 94.6601 186.205 94.7148C186.479 94.6601 186.697 94.7148 186.861 94.8788C187.053 95.0156 187.34 95.1113 187.723 95.166C187.859 95.3027 187.9 95.412 187.846 95.4941C187.791 95.5761 187.75 95.7128 187.723 95.9042C188.707 96.205 189.336 96.6835 189.609 97.3398C189.883 97.9687 189.91 98.6386 189.691 99.3495C189.473 100.033 189.062 100.676 188.461 101.277C187.887 101.852 187.244 102.234 186.533 102.426C185.686 102.644 184.893 102.863 184.154 103.082C183.443 103.301 182.746 103.547 182.062 103.82C181.406 104.094 180.777 104.422 180.176 104.805C179.602 105.16 179.096 105.584 178.658 106.076C177.893 106.295 177.195 106.596 176.566 106.978C175.965 107.361 175.391 107.785 174.844 108.25C174.324 108.715 173.818 109.207 173.326 109.727C172.834 110.219 172.342 110.711 171.85 111.203C171.85 111.668 171.768 112.023 171.604 112.269C171.439 112.516 171.262 112.762 171.07 113.008C171.125 113.527 171.234 113.978 171.398 114.361C171.59 114.717 171.781 115.086 171.973 115.469C174.16 116.125 176.471 116.535 178.904 116.699C181.365 116.836 183.799 116.918 186.205 116.945C186.451 117.273 186.725 117.588 187.025 117.889C187.354 118.162 187.641 118.449 187.887 118.75C188.16 119.051 188.365 119.406 188.502 119.816C188.666 120.199 188.707 120.664 188.625 121.211C188.16 121.676 187.654 122.127 187.107 122.564C186.561 122.975 186.014 123.385 185.467 123.795C185.221 123.822 184.92 123.822 184.564 123.795C184.236 123.768 183.881 123.754 183.498 123.754C183.143 123.754 182.773 123.781 182.391 123.836C182.035 123.863 181.693 123.945 181.365 124.082C179.643 124.027 177.879 123.822 176.074 123.467C174.27 123.084 172.602 122.633 171.07 122.113C170.77 121.758 170.455 121.43 170.127 121.129C169.799 120.801 169.361 120.568 168.814 120.432ZM211.676 120.021C211.73 120.732 211.648 121.32 211.43 121.785C211.211 122.25 210.91 122.646 210.527 122.975C210.145 123.303 209.707 123.562 209.215 123.754C208.723 123.945 208.244 124.123 207.779 124.287C207.561 124.15 207.342 124.014 207.123 123.877C206.932 123.713 206.699 123.59 206.426 123.508C206.07 122.852 205.729 122.277 205.4 121.785C205.072 121.266 204.922 120.678 204.949 120.021C204.949 119.994 204.963 119.844 204.99 119.57C205.045 119.297 205.1 118.996 205.154 118.668C205.236 118.34 205.291 118.039 205.318 117.766C205.373 117.465 205.4 117.301 205.4 117.273C204.771 117.328 204.115 117.465 203.432 117.684C202.748 117.902 202.078 118.162 201.422 118.463C200.793 118.764 200.191 119.064 199.617 119.365C199.07 119.666 198.619 119.926 198.264 120.144C198.264 120.227 198.209 120.432 198.1 120.76C197.99 121.06 197.854 121.389 197.689 121.744C197.525 122.072 197.348 122.373 197.156 122.646C196.965 122.92 196.773 123.057 196.582 123.057C196.609 123.139 196.65 123.221 196.705 123.303C196.76 123.385 196.76 123.494 196.705 123.631C196.322 123.74 195.98 123.877 195.68 124.041C195.379 124.232 195.064 124.383 194.736 124.492C194.408 124.629 194.053 124.697 193.67 124.697C193.287 124.697 192.836 124.56 192.316 124.287C192.316 124.123 192.248 123.986 192.111 123.877C191.975 123.74 191.824 123.631 191.66 123.549C191.523 123.439 191.4 123.357 191.291 123.303C191.182 123.221 191.127 123.152 191.127 123.098C190.99 123.125 190.936 123.029 190.963 122.81C190.99 122.592 191.1 122.537 191.291 122.646C190.99 122.264 190.799 121.935 190.717 121.662C190.662 121.361 190.512 120.992 190.266 120.555C190.32 120.5 190.375 120.404 190.43 120.268C190.457 120.131 190.484 120.008 190.512 119.898C190.539 119.789 190.58 119.707 190.635 119.652C190.689 119.598 190.758 119.611 190.84 119.693C190.785 119.447 190.785 119.242 190.84 119.078C190.895 118.914 190.949 118.764 191.004 118.627C191.059 118.49 191.1 118.353 191.127 118.217C191.154 118.08 191.113 117.93 191.004 117.766C191.441 117.164 191.729 116.521 191.865 115.838C192.002 115.127 192.084 114.484 192.111 113.91C192.303 113.719 192.467 113.445 192.604 113.09C192.768 112.734 192.891 112.379 192.973 112.023C193.055 111.641 193.082 111.285 193.055 110.957C193.055 110.602 193.014 110.314 192.932 110.096C192.959 109.959 193.109 109.918 193.383 109.973C193.547 109.07 193.656 108.059 193.711 106.937C193.793 105.789 193.916 104.709 194.08 103.697C194.244 102.658 194.518 101.756 194.9 100.99C195.283 100.197 195.898 99.6777 196.746 99.4316C196.91 100.006 197.115 100.512 197.361 100.949C197.635 101.387 197.922 101.81 198.223 102.221C198.551 102.603 198.865 103 199.166 103.41C199.494 103.82 199.795 104.285 200.068 104.805C200.041 105.324 199.986 105.926 199.904 106.609C199.822 107.293 199.713 107.99 199.576 108.701C199.467 109.412 199.344 110.096 199.207 110.752C199.098 111.408 198.988 111.969 198.879 112.434C198.906 112.57 198.975 112.652 199.084 112.68C199.221 112.707 199.248 112.83 199.166 113.049C199.822 112.885 200.506 112.734 201.217 112.598C201.928 112.461 202.639 112.31 203.35 112.146C204.061 111.982 204.744 111.805 205.4 111.613C206.084 111.394 206.713 111.135 207.287 110.834C207.424 109.768 207.602 108.701 207.82 107.635C208.039 106.568 208.066 105.475 207.902 104.353C208.039 104.244 208.148 104.107 208.23 103.943C208.312 103.779 208.449 103.67 208.641 103.615C208.504 103.096 208.449 102.549 208.477 101.975C208.504 101.4 208.6 100.853 208.764 100.334C208.955 99.8144 209.215 99.3769 209.543 99.0214C209.898 98.6386 210.322 98.3925 210.814 98.2831C211.115 98.7206 211.375 99.1992 211.594 99.7187C211.812 100.211 212.031 100.717 212.25 101.236C212.496 101.728 212.742 102.207 212.988 102.672C213.262 103.109 213.604 103.492 214.014 103.82C214.096 104.613 214.15 105.434 214.178 106.281C214.232 107.129 214.273 107.99 214.301 108.865C214.082 109.904 213.836 110.916 213.562 111.9C213.316 112.857 213.139 113.883 213.029 114.977C212.838 115.195 212.688 115.441 212.578 115.715C212.469 115.988 212.359 116.275 212.25 116.576C212.141 116.85 212.018 117.123 211.881 117.396C211.744 117.643 211.58 117.861 211.389 118.053C211.498 118.381 211.512 118.695 211.43 118.996C211.375 119.269 211.457 119.611 211.676 120.021ZM238.008 100.908C238.035 101.1 238.035 101.25 238.008 101.359C238.008 101.441 237.994 101.523 237.967 101.605C237.967 101.687 237.967 101.783 237.967 101.893C237.967 101.975 237.994 102.111 238.049 102.303C237.475 103.232 236.805 103.875 236.039 104.23C235.301 104.559 234.494 104.805 233.619 104.969C232.744 105.105 231.842 105.256 230.912 105.42C230.01 105.584 229.107 105.939 228.205 106.486C227.85 106.35 227.521 106.35 227.221 106.486C226.947 106.623 226.537 106.664 225.99 106.609C225.826 106.773 225.621 106.896 225.375 106.978C225.129 107.033 224.883 107.102 224.637 107.184C224.746 107.43 224.787 107.689 224.76 107.963C224.76 108.209 224.801 108.414 224.883 108.578C225.84 108.66 226.893 108.646 228.041 108.537C229.217 108.428 230.365 108.359 231.486 108.332C231.514 108.469 231.5 108.564 231.445 108.619C231.391 108.646 231.377 108.715 231.404 108.824C231.596 108.961 231.787 109.139 231.979 109.357C232.17 109.549 232.361 109.74 232.553 109.932C232.744 110.123 232.936 110.287 233.127 110.424C233.346 110.533 233.592 110.574 233.865 110.547C233.975 110.766 234.043 111.012 234.07 111.285C234.125 111.531 234.098 111.791 233.988 112.064C233.551 112.365 233.113 112.68 232.676 113.008C232.238 113.309 231.773 113.582 231.281 113.828C230.816 114.074 230.311 114.279 229.764 114.443C229.244 114.58 228.656 114.635 228 114.607C227.863 114.607 227.754 114.607 227.672 114.607C227.617 114.607 227.535 114.566 227.426 114.484C227.207 114.621 226.893 114.662 226.482 114.607C226.1 114.553 225.799 114.594 225.58 114.73C225.279 114.594 224.91 114.539 224.473 114.566C224.062 114.566 223.693 114.512 223.365 114.402C222.928 114.977 222.531 115.592 222.176 116.248C221.82 116.904 221.506 117.602 221.232 118.34C222.162 118.477 222.928 118.531 223.529 118.504C224.158 118.477 224.746 118.435 225.293 118.381C225.84 118.299 226.4 118.23 226.975 118.176C227.549 118.094 228.273 118.066 229.148 118.094C229.695 117.793 230.338 117.602 231.076 117.519C231.842 117.41 232.539 117.246 233.168 117.027C233.387 117.109 233.578 117.26 233.742 117.478C233.906 117.67 234.057 117.861 234.193 118.053C234.357 118.217 234.521 118.367 234.686 118.504C234.85 118.641 235.055 118.695 235.301 118.668C235.41 118.777 235.479 118.914 235.506 119.078C235.561 119.215 235.602 119.352 235.629 119.488C235.656 119.625 235.697 119.748 235.752 119.857C235.834 119.939 235.957 119.967 236.121 119.939C235.711 120.842 235.232 121.539 234.686 122.031C234.166 122.496 233.564 122.852 232.881 123.098C232.197 123.344 231.432 123.535 230.584 123.672C229.764 123.809 228.848 123.973 227.836 124.164C227.59 124.219 227.385 124.205 227.221 124.123C227.057 124.068 226.865 124.041 226.646 124.041C226.018 124.178 225.266 124.301 224.391 124.41C223.516 124.519 222.627 124.56 221.725 124.533C220.822 124.506 219.961 124.383 219.141 124.164C218.32 123.973 217.65 123.617 217.131 123.098C216.912 122.906 216.762 122.687 216.68 122.441C216.625 122.168 216.447 121.963 216.146 121.826C216.119 121.471 216.064 121.074 215.982 120.637C215.9 120.199 215.818 119.748 215.736 119.283C215.654 118.791 215.586 118.312 215.531 117.848C215.504 117.383 215.531 116.959 215.613 116.576C215.695 116.166 215.859 115.797 216.105 115.469C216.379 115.141 216.475 114.785 216.393 114.402C216.529 114.375 216.611 114.307 216.639 114.197C216.666 114.06 216.775 114.006 216.967 114.033C217.131 113.541 217.309 113.076 217.5 112.639C217.691 112.201 217.883 111.777 218.074 111.367C218.293 110.957 218.498 110.547 218.689 110.137C218.908 109.699 219.113 109.221 219.305 108.701C218.922 108.346 218.635 107.963 218.443 107.553C218.279 107.115 218.156 106.691 218.074 106.281C217.992 105.844 217.924 105.406 217.869 104.969C217.814 104.504 217.719 104.039 217.582 103.574C217.855 103.164 218.184 102.836 218.566 102.59C218.977 102.316 219.414 102.098 219.879 101.934C220.344 101.769 220.85 101.633 221.396 101.523C221.943 101.414 222.518 101.291 223.119 101.154C224.213 100.799 225.184 100.525 226.031 100.334C226.906 100.143 227.754 99.9921 228.574 99.8828C229.422 99.746 230.297 99.623 231.199 99.5136C232.102 99.4042 233.127 99.2402 234.275 99.0214C234.521 99.2675 234.754 99.3906 234.973 99.3906C235.082 99.1445 235.205 99.0761 235.342 99.1855C235.506 99.2675 235.574 99.1855 235.547 98.9394C235.82 99.4042 236.162 99.8007 236.572 100.129C237.01 100.43 237.488 100.689 238.008 100.908ZM253.676 124.082C253.238 124.109 252.691 124.096 252.035 124.041C251.406 123.986 250.818 124.082 250.271 124.328C248.822 124.273 247.346 124.096 245.842 123.795C244.338 123.494 242.957 123.125 241.699 122.687C241.426 122.387 241.152 122.113 240.879 121.867C240.605 121.594 240.236 121.402 239.771 121.293C239.115 120.773 238.582 120.144 238.172 119.406C237.762 118.641 237.434 117.834 237.188 116.986C236.941 116.139 236.777 115.277 236.695 114.402C236.613 113.5 236.586 112.639 236.613 111.818C237.023 110.588 237.598 109.535 238.336 108.66C239.102 107.758 239.881 106.869 240.674 105.994C241.029 105.83 241.289 105.666 241.453 105.502C241.645 105.31 241.836 105.146 242.027 105.01C242.246 104.846 242.451 104.695 242.643 104.559C242.861 104.394 243.053 104.203 243.217 103.984C243.791 103.848 244.283 103.656 244.693 103.41C245.131 103.137 245.555 102.863 245.965 102.59C246.375 102.289 246.799 102.016 247.236 101.769C247.674 101.523 248.18 101.332 248.754 101.195C248.973 100.949 249.232 100.758 249.533 100.621C249.834 100.457 250.135 100.307 250.436 100.17C250.764 100.006 251.064 99.8417 251.338 99.6777C251.639 99.5136 251.871 99.2949 252.035 99.0214C252.172 99.2402 252.363 99.3222 252.609 99.2675C252.855 99.1855 253.088 99.1035 253.307 99.0214C253.443 98.9941 253.553 99.0214 253.635 99.1035C253.744 99.1855 253.84 99.2675 253.922 99.3495C254.004 99.4316 254.072 99.4863 254.127 99.5136C254.209 99.5136 254.277 99.4453 254.332 99.3085C254.469 99.3085 254.51 99.3769 254.455 99.5136C254.4 99.6503 254.359 99.746 254.332 99.8007C254.551 99.7734 254.729 99.8281 254.865 99.9648C255.029 100.074 255.275 100.143 255.604 100.17C255.713 100.307 255.74 100.416 255.686 100.498C255.631 100.553 255.604 100.662 255.604 100.826C256.424 101.072 256.943 101.469 257.162 102.016C257.381 102.535 257.395 103.082 257.203 103.656C257.012 104.23 256.67 104.764 256.178 105.256C255.686 105.748 255.152 106.076 254.578 106.24C253.266 106.596 252.021 106.992 250.846 107.43C249.697 107.84 248.754 108.455 248.016 109.275C247.359 109.467 246.771 109.727 246.252 110.055C245.76 110.355 245.281 110.711 244.816 111.121C244.379 111.504 243.955 111.914 243.545 112.352C243.162 112.762 242.752 113.172 242.314 113.582C242.342 113.965 242.273 114.266 242.109 114.484C241.973 114.676 241.836 114.881 241.699 115.1C241.754 115.51 241.85 115.879 241.986 116.207C242.123 116.508 242.273 116.809 242.438 117.109C244.242 117.656 246.156 117.998 248.18 118.135C250.23 118.271 252.281 118.353 254.332 118.381C254.523 118.654 254.742 118.914 254.988 119.16C255.262 119.379 255.508 119.625 255.727 119.898C255.945 120.144 256.123 120.432 256.26 120.76C256.396 121.06 256.424 121.443 256.342 121.908C255.959 122.318 255.535 122.701 255.07 123.057C254.605 123.385 254.141 123.727 253.676 124.082ZM282.92 122.523C281.607 122.578 280.445 122.551 279.434 122.441C278.449 122.332 277.479 122.072 276.521 121.662C276.467 121.635 276.412 121.566 276.357 121.457C276.303 121.348 276.248 121.266 276.193 121.211C276.029 121.129 275.824 121.102 275.578 121.129C275.359 121.129 275.168 121.102 275.004 121.047C274.785 120.937 274.443 120.732 273.979 120.432C273.514 120.103 273.09 119.803 272.707 119.529C272.215 119.146 271.75 118.764 271.312 118.381C270.875 117.998 270.492 117.588 270.164 117.15C270.082 117.041 269.973 116.986 269.836 116.986C269.699 116.959 269.576 116.918 269.467 116.863C268.674 117.355 268.004 117.971 267.457 118.709C266.91 119.447 266.391 120.199 265.898 120.965C265.406 121.73 264.887 122.455 264.34 123.139C263.793 123.822 263.096 124.342 262.248 124.697C262.002 124.697 261.783 124.656 261.592 124.574C261.4 124.492 261.223 124.383 261.059 124.246C260.895 124.137 260.73 124.027 260.566 123.918C260.402 123.809 260.225 123.727 260.033 123.672C260.033 123.344 259.965 123.043 259.828 122.769C259.719 122.496 259.596 122.236 259.459 121.99C259.35 121.744 259.268 121.512 259.213 121.293C259.158 121.047 259.213 120.814 259.377 120.596C259.213 120.432 258.967 120.254 258.639 120.062C258.803 119.898 258.871 119.748 258.844 119.611C258.844 119.475 258.816 119.338 258.762 119.201C258.707 119.064 258.652 118.914 258.598 118.75C258.57 118.586 258.611 118.422 258.721 118.258C258.857 118.258 259.021 118.23 259.213 118.176C259.049 117.957 258.967 117.834 258.967 117.807C258.994 117.752 258.967 117.684 258.885 117.602C258.83 117.437 258.857 117.342 258.967 117.314C259.076 117.26 259.186 117.205 259.295 117.15C259.404 115.81 259.637 114.566 259.992 113.418C260.348 112.269 260.744 111.162 261.182 110.096C261.619 109.029 262.043 107.949 262.453 106.855C262.891 105.762 263.246 104.586 263.52 103.328C263.82 103.027 264.053 102.672 264.217 102.262C264.408 101.852 264.6 101.441 264.791 101.031C265.01 100.621 265.242 100.225 265.488 99.8417C265.762 99.4316 266.131 99.1035 266.596 98.8574C266.979 98.8847 267.32 98.9941 267.621 99.1855C267.922 99.3495 268.291 99.4179 268.729 99.3906C268.811 99.5273 268.879 99.664 268.934 99.8007C269.016 99.9374 269.111 100.074 269.221 100.211L269.836 100.088C270.137 100.334 270.396 100.648 270.615 101.031C270.861 101.387 271.025 101.769 271.107 102.18C271.189 102.59 271.176 102.986 271.066 103.369C270.957 103.725 270.697 104.012 270.287 104.23C270.314 104.367 270.314 104.477 270.287 104.559C270.287 104.613 270.273 104.668 270.246 104.723C270.219 104.777 270.205 104.832 270.205 104.887C270.205 104.941 270.246 105.023 270.328 105.133C269.781 105.543 269.371 106.117 269.098 106.855C268.824 107.594 268.674 108.25 268.646 108.824C268.975 108.496 269.33 108.182 269.713 107.881C270.123 107.553 270.533 107.238 270.943 106.937C271.381 106.637 271.791 106.35 272.174 106.076C272.584 105.803 272.953 105.529 273.281 105.256C274.184 104.435 275.045 103.779 275.865 103.287C276.713 102.768 277.602 102.193 278.531 101.564C278.75 101.51 278.914 101.51 279.023 101.564C279.16 101.592 279.297 101.633 279.434 101.687C279.434 101.523 279.379 101.428 279.27 101.4C279.188 101.373 279.16 101.264 279.188 101.072C279.598 100.963 279.953 100.84 280.254 100.703C280.555 100.539 280.883 100.389 281.238 100.252C281.484 100.498 281.717 100.758 281.936 101.031C282.154 101.277 282.455 101.428 282.838 101.482C282.975 101.783 283.139 102.016 283.33 102.18C283.521 102.316 283.713 102.453 283.904 102.59C284.096 102.727 284.26 102.891 284.396 103.082C284.561 103.273 284.656 103.574 284.684 103.984C284.574 104.176 284.451 104.381 284.314 104.6C284.205 104.818 284.096 105.078 283.986 105.379C283.439 105.871 282.879 106.309 282.305 106.691C281.758 107.074 281.197 107.443 280.623 107.799C280.049 108.154 279.461 108.51 278.859 108.865C278.258 109.221 277.643 109.644 277.014 110.137C276.877 110.328 276.699 110.506 276.48 110.67C276.289 110.807 276.084 110.957 275.865 111.121C275.646 111.258 275.441 111.408 275.25 111.572C275.059 111.736 274.908 111.928 274.799 112.146C274.717 112.174 274.635 112.187 274.553 112.187C274.471 112.187 274.389 112.201 274.307 112.228C274.225 112.42 274.088 112.57 273.896 112.68C273.732 112.789 273.623 112.939 273.568 113.131C273.979 114.006 274.512 114.676 275.168 115.141C275.824 115.605 276.562 115.947 277.383 116.166C278.203 116.357 279.092 116.467 280.049 116.494C281.006 116.494 282.004 116.494 283.043 116.494C283.152 116.467 283.193 116.412 283.166 116.33C283.166 116.221 283.234 116.18 283.371 116.207C284.027 116.426 284.533 116.74 284.889 117.15C285.244 117.533 285.668 117.916 286.16 118.299C286.105 119.338 285.791 120.199 285.217 120.883C284.643 121.566 283.877 122.113 282.92 122.523ZM324.756 111.695C324.729 112.023 324.756 112.338 324.838 112.639C324.92 112.939 325.016 113.24 325.125 113.541C325.262 113.814 325.385 114.102 325.494 114.402C325.604 114.703 325.686 115.004 325.74 115.305C325.795 115.687 325.795 116.111 325.74 116.576C325.686 117.014 325.59 117.451 325.453 117.889C325.316 118.299 325.139 118.682 324.92 119.037C324.701 119.365 324.441 119.611 324.141 119.775C323.758 120.268 323.293 120.65 322.746 120.924C322.199 121.197 321.693 121.525 321.229 121.908C320.928 122.1 320.586 122.236 320.203 122.318C319.848 122.4 319.479 122.482 319.096 122.564C318.795 122.728 318.439 122.906 318.029 123.098C317.619 123.262 317.195 123.426 316.758 123.59C316.32 123.727 315.883 123.836 315.445 123.918C315.008 123.973 314.625 123.986 314.297 123.959C313.477 124.26 312.67 124.451 311.877 124.533C311.111 124.643 310.209 124.588 309.17 124.369C308.186 124.506 307.27 124.465 306.422 124.246C305.602 124.027 304.863 123.685 304.207 123.221C303.578 122.728 303.018 122.154 302.525 121.498C302.061 120.814 301.678 120.103 301.377 119.365C301.158 117.807 301.213 116.398 301.541 115.141C301.869 113.855 302.334 112.68 302.936 111.613C303.564 110.519 304.275 109.521 305.068 108.619C305.861 107.689 306.627 106.787 307.365 105.912C307.529 105.967 307.652 105.967 307.734 105.912C307.844 105.83 307.939 105.734 308.021 105.625C308.104 105.488 308.186 105.365 308.268 105.256C308.377 105.146 308.5 105.078 308.637 105.051C308.828 104.641 309.102 104.34 309.457 104.148C309.84 103.93 310.141 103.629 310.359 103.246C310.605 103.191 310.811 103.109 310.975 103C311.139 102.891 311.289 102.768 311.426 102.631C311.59 102.494 311.754 102.371 311.918 102.262C312.082 102.125 312.273 102.029 312.492 101.975V101.523C312.984 101.305 313.34 101.059 313.559 100.785C313.805 100.484 314.092 100.129 314.42 99.7187C314.666 99.6913 314.857 99.6777 314.994 99.6777C315.158 99.6777 315.391 99.6503 315.691 99.5956C315.91 99.2128 316.102 98.9257 316.266 98.7343C316.457 98.5429 316.73 98.3378 317.086 98.1191C317.414 98.2831 317.77 98.3925 318.152 98.4472C318.562 98.5019 318.918 98.6796 319.219 98.9804C319.246 99.2538 319.328 99.4726 319.465 99.6367C319.602 99.7734 319.752 99.9101 319.916 100.047C320.08 100.156 320.23 100.279 320.367 100.416C320.531 100.553 320.641 100.744 320.695 100.99C320.805 101.018 320.873 101.004 320.9 100.949C320.955 100.894 321.037 100.881 321.146 100.908C321.229 101.291 321.324 101.551 321.434 101.687C321.543 101.797 321.652 102.029 321.762 102.385C321.625 102.658 321.516 102.945 321.434 103.246C321.379 103.519 321.215 103.725 320.941 103.861C320.914 104.053 320.969 104.162 321.105 104.189C321.242 104.189 321.324 104.258 321.352 104.394C321.379 104.641 321.338 104.818 321.229 104.928C321.885 105.994 322.473 107.129 322.992 108.332C323.512 109.508 324.1 110.629 324.756 111.695ZM319.629 115.592C319.738 115.291 319.875 115.045 320.039 114.853C320.23 114.662 320.34 114.375 320.367 113.992C320.23 113.773 320.148 113.609 320.121 113.5C320.094 113.363 320.08 113.158 320.08 112.885C319.479 112.037 318.959 111.135 318.521 110.178C318.084 109.193 317.592 108.277 317.045 107.43C316.99 107.539 316.895 107.648 316.758 107.758C316.621 107.867 316.471 107.84 316.307 107.676C316.252 107.894 316.156 108.059 316.02 108.168C315.883 108.25 315.732 108.291 315.568 108.291C315.404 108.264 315.227 108.223 315.035 108.168C314.871 108.086 314.721 107.99 314.584 107.881C313.791 108.51 312.998 109.125 312.205 109.727C311.412 110.328 310.701 111.025 310.072 111.818C309.963 111.873 309.895 111.9 309.867 111.9C309.84 111.873 309.758 111.887 309.621 111.941C309.402 112.461 309.129 112.939 308.801 113.377C308.5 113.787 308.199 114.211 307.898 114.648C307.598 115.086 307.338 115.551 307.119 116.043C306.9 116.535 306.777 117.109 306.75 117.766C307.215 118.148 307.762 118.381 308.391 118.463C309.02 118.545 309.662 118.559 310.318 118.504C311.002 118.449 311.658 118.367 312.287 118.258C312.943 118.121 313.545 118.053 314.092 118.053C315.24 117.779 316.225 117.424 317.045 116.986C317.865 116.521 318.727 116.057 319.629 115.592ZM350.637 100.662C350.691 101.264 350.787 101.783 350.924 102.221C351.061 102.658 351.211 103.082 351.375 103.492C351.512 103.875 351.635 104.258 351.744 104.641C351.881 104.996 351.977 105.434 352.031 105.953C351.812 106.664 351.648 107.32 351.539 107.922C351.457 108.523 351.361 109.152 351.252 109.809C350.814 110.766 350.391 111.613 349.98 112.352C349.57 113.09 349.242 113.732 348.996 114.279C348.859 114.416 348.736 114.58 348.627 114.771C348.545 114.935 348.449 115.113 348.34 115.305C348.285 115.387 348.217 115.51 348.135 115.674C348.053 115.838 347.984 115.947 347.93 116.002L347.109 115.715L346.945 116.74L346.371 116.904L345.961 117.396C345.441 118.299 344.895 119.064 344.32 119.693C343.746 120.295 343.09 120.842 342.352 121.334C341.641 121.799 340.82 122.236 339.891 122.646C338.988 123.057 337.963 123.508 336.814 124C336.35 123.945 335.939 123.918 335.584 123.918C335.256 123.891 334.941 123.863 334.641 123.836C334.121 123.836 333.479 123.795 332.713 123.713C332.631 123.494 332.508 123.344 332.344 123.262C332.18 123.18 332.029 123.139 331.893 123.139C331.428 122.92 331.072 122.605 330.826 122.195C330.607 121.758 330.389 121.293 330.17 120.801C330.033 120.5 329.896 120.227 329.76 119.98C329.623 119.707 329.473 119.434 329.309 119.16L330.006 118.955L329.104 117.971C329.049 117.889 328.98 117.82 328.898 117.766C328.816 117.684 328.748 117.602 328.693 117.519L328.652 116.863C328.57 114.977 328.529 113.254 328.529 111.695C328.557 110.109 328.775 108.701 329.186 107.471V107.019C329.268 106.418 329.35 105.926 329.432 105.543C329.514 105.133 329.582 104.75 329.637 104.394C329.719 103.793 329.842 103.232 330.006 102.713C330.389 102.631 330.676 102.48 330.867 102.262C331.059 102.016 331.223 101.797 331.359 101.605C331.742 101.578 332.002 101.633 332.139 101.769C332.275 101.906 332.412 102.125 332.549 102.426C332.686 102.672 332.85 102.945 333.041 103.246C333.26 103.547 333.574 103.779 333.984 103.943C334.039 104.162 334.107 104.394 334.189 104.641C334.299 104.859 334.408 105.105 334.518 105.379C334.736 105.844 334.928 106.336 335.092 106.855C335.283 107.348 335.393 107.826 335.42 108.291C335.146 108.81 334.928 109.412 334.764 110.096C334.627 110.779 334.531 111.477 334.477 112.187C334.449 112.871 334.463 113.541 334.518 114.197C334.6 114.826 334.723 115.359 334.887 115.797L335.133 116.33L335.83 116.248C336.65 116.029 337.389 115.797 338.045 115.551C338.729 115.277 339.357 114.963 339.932 114.607C340.506 114.252 341.053 113.842 341.572 113.377C342.092 112.885 342.639 112.324 343.213 111.695C343.787 111.066 344.279 110.355 344.689 109.562C345.127 108.742 345.482 107.894 345.756 107.019C346.057 106.144 346.275 105.283 346.412 104.435C346.576 103.56 346.686 102.74 346.74 101.975C347.205 101.81 347.438 101.482 347.438 100.99L347.355 100.539C347.246 100.375 347.246 100.184 347.355 99.9648C347.52 99.4453 347.902 99.0488 348.504 98.7753C348.941 99.0488 349.324 99.3495 349.652 99.6777C350.008 100.006 350.336 100.334 350.637 100.662ZM374.344 104.271C373.66 104.271 372.922 104.326 372.129 104.435C371.336 104.518 370.557 104.613 369.791 104.723C369.244 104.805 368.711 104.873 368.191 104.928C367.699 104.982 367.248 105.023 366.838 105.051C366.646 105.652 366.455 106.185 366.264 106.65C366.072 107.115 365.867 107.566 365.648 108.004C365.43 108.469 365.225 108.947 365.033 109.439C364.869 109.904 364.705 110.41 364.541 110.957C364.268 111.394 364.035 111.805 363.844 112.187C363.68 112.543 363.543 112.953 363.434 113.418C363.105 113.828 362.859 114.266 362.695 114.73C362.531 115.168 362.408 115.551 362.326 115.879L362.162 116.371C361.998 116.535 361.902 116.672 361.875 116.781C361.848 116.863 361.779 116.945 361.67 117.027C361.643 117.328 361.547 117.629 361.383 117.93C361.328 118.066 361.287 118.203 361.26 118.34C361.232 118.449 361.219 118.531 361.219 118.586C361.219 118.859 361.15 119.037 361.014 119.119C361.041 119.256 361.041 119.406 361.014 119.57C360.986 119.707 360.959 119.844 360.932 119.98C360.85 120.309 360.822 120.568 360.85 120.76C360.932 120.869 361 120.965 361.055 121.047C361.137 121.129 361.191 121.238 361.219 121.375C361.383 121.484 361.506 121.553 361.588 121.58C361.697 121.662 361.861 121.758 362.08 121.867L362.449 122.277C362.586 123.07 362.463 123.699 362.08 124.164C361.67 124.684 360.973 124.943 359.988 124.943H359.496C359.359 124.807 359.277 124.697 359.25 124.615C359.031 124.533 358.854 124.465 358.717 124.41C358.58 124.355 358.457 124.246 358.348 124.082C357.992 123.918 357.705 123.781 357.486 123.672L357.117 123.467C357.117 123.166 357.117 123.002 357.117 122.975C356.926 122.728 356.775 122.455 356.666 122.154C356.584 121.853 356.516 121.553 356.461 121.252C356.406 121.006 356.338 120.773 356.256 120.555C356.201 120.336 356.119 120.144 356.01 119.98C355.955 118.394 356.105 117.055 356.461 115.961C356.816 114.867 357.186 113.814 357.568 112.803C357.787 112.256 358.006 111.709 358.225 111.162C358.443 110.588 358.635 110 358.799 109.398L359.168 108.988C359.359 108.551 359.51 108.195 359.619 107.922C359.756 107.621 359.893 107.32 360.029 107.019C360.111 106.828 360.18 106.65 360.234 106.486C360.316 106.295 360.385 106.131 360.439 105.994C360.275 105.994 360.125 106.008 359.988 106.035C359.852 106.035 359.715 106.049 359.578 106.076C359.414 106.103 359.264 106.131 359.127 106.158C358.99 106.158 358.854 106.158 358.717 106.158C358.525 106.158 358.389 106.144 358.307 106.117C358.006 106.254 357.678 106.322 357.322 106.322H356.912C356.83 106.322 356.748 106.322 356.666 106.322C356.611 106.295 356.557 106.281 356.502 106.281C356.229 106.281 356.01 106.322 355.846 106.404C355.518 106.404 355.203 106.404 354.902 106.404H354.492C354.438 106.404 354.369 106.418 354.287 106.445C354.205 106.445 354.137 106.445 354.082 106.445C353.891 106.445 353.686 106.432 353.467 106.404C353.248 106.35 353.016 106.254 352.77 106.117C352.441 105.68 352.223 105.447 352.113 105.42L351.744 104.928C351.717 104.764 351.676 104.613 351.621 104.477C351.566 104.312 351.512 104.135 351.457 103.943C351.348 103.67 351.238 103.383 351.129 103.082C351.047 102.754 351.006 102.371 351.006 101.934C351.033 101.715 351.088 101.551 351.17 101.441C351.252 101.332 351.32 101.236 351.375 101.154L351.498 100.539L352.031 100.58H353.18C354.055 100.58 354.943 100.553 355.846 100.498C356.748 100.416 357.678 100.334 358.635 100.252C359.182 100.197 359.729 100.143 360.275 100.088C360.85 100.033 361.438 99.9785 362.039 99.9238C362.148 99.6777 362.258 99.4453 362.367 99.2265L362.777 99.0214C363.27 98.9941 363.611 99.0624 363.803 99.2265C364.021 99.3632 364.199 99.4999 364.336 99.6367C364.938 99.582 365.539 99.5273 366.141 99.4726C366.77 99.3906 367.398 99.2949 368.027 99.1855C368.957 99.0488 369.887 98.9257 370.816 98.8163C371.773 98.707 372.689 98.6523 373.564 98.6523C373.947 98.6523 374.316 98.666 374.672 98.6933C375.027 98.7206 375.355 98.7617 375.656 98.8163L376.066 99.1035C376.148 99.2675 376.258 99.4179 376.395 99.5546C376.559 99.6913 376.723 99.8281 376.887 99.9648C377.215 100.266 377.543 100.621 377.871 101.031C378.199 101.441 378.322 102.043 378.24 102.836C378.021 103.164 377.857 103.355 377.748 103.41L377.379 103.902L376.969 103.861C376.805 103.861 376.654 103.889 376.518 103.943C376.381 103.971 376.244 104.012 376.107 104.066C375.998 104.121 375.889 104.176 375.779 104.23C375.67 104.258 375.547 104.285 375.41 104.312C375.164 104.312 374.959 104.312 374.795 104.312C374.658 104.285 374.508 104.271 374.344 104.271ZM415.072 123.262C414.799 123.398 414.539 123.521 414.293 123.631C414.074 123.74 413.814 123.795 413.514 123.795C412.447 123.002 411.887 121.621 411.832 119.652C411.805 117.684 412.229 115.182 413.104 112.146C413.24 112.064 413.309 111.9 413.309 111.654L412.939 111.244C412.83 111.244 412.721 111.258 412.611 111.285C412.529 111.312 412.461 111.408 412.406 111.572C411.695 112.092 410.916 112.639 410.068 113.213C409.221 113.76 408.332 114.279 407.402 114.771C406.5 115.236 405.57 115.619 404.613 115.92C403.684 116.221 402.768 116.371 401.865 116.371C399.568 116.371 397.846 115.209 396.697 112.885L396.369 112.269L396.041 112.803C395.959 112.912 395.836 113.144 395.672 113.5C395.508 113.828 395.344 114.211 395.18 114.648C395.016 115.086 394.865 115.537 394.729 116.002C394.619 116.439 394.578 116.822 394.605 117.15C394.359 117.396 394.1 117.684 393.826 118.012C393.553 118.34 393.348 118.709 393.211 119.119C393.156 119.338 393.184 119.543 393.293 119.734C393.238 119.98 393.115 120.172 392.924 120.309C392.814 120.445 392.691 120.582 392.555 120.719C392.445 120.828 392.35 120.951 392.268 121.088C392.213 121.225 392.172 121.361 392.145 121.498C392.145 121.635 392.131 121.771 392.104 121.908C392.104 122.1 392.076 122.277 392.021 122.441C391.557 123.398 391.188 124.014 390.914 124.287C390.641 124.588 390.271 124.738 389.807 124.738C389.588 124.738 389.232 124.697 388.74 124.615C388.385 124.232 388.057 123.713 387.756 123.057C387.482 122.373 387.264 121.648 387.1 120.883C386.963 120.117 386.895 119.352 386.895 118.586C386.922 117.793 387.059 117.109 387.305 116.535C387.305 116.508 387.414 116.234 387.633 115.715C387.852 115.195 388.125 114.525 388.453 113.705C388.809 112.885 389.205 111.982 389.643 110.998C390.08 109.986 390.518 109.016 390.955 108.086C391.393 107.129 391.803 106.254 392.186 105.461C392.596 104.668 392.938 104.066 393.211 103.656C393.43 103.328 393.621 103.027 393.785 102.754C393.977 102.453 394.154 102.166 394.318 101.893C394.811 101.045 395.275 100.348 395.713 99.8007C396.178 99.2265 396.848 98.7753 397.723 98.4472C398.324 98.6933 398.762 98.9804 399.035 99.3085L399.117 99.7597C399.227 100.033 399.391 100.17 399.609 100.17C399.91 100.252 400.156 100.334 400.348 100.416C400.566 100.471 400.799 100.525 401.045 100.58C401.236 100.799 401.414 101.059 401.578 101.359C401.797 101.687 402.002 102.016 402.193 102.344C402.412 102.644 402.576 102.959 402.686 103.287C402.822 103.588 402.891 103.902 402.891 104.23C402.918 104.559 402.863 104.9 402.727 105.256L402.768 105.666C402.904 105.912 402.932 106.254 402.85 106.691C402.822 106.883 402.809 107.088 402.809 107.307C402.809 107.498 402.836 107.717 402.891 107.963C403.383 108.346 403.82 108.537 404.203 108.537C404.641 108.537 405.037 108.441 405.393 108.25C405.775 108.031 406.131 107.812 406.459 107.594C406.678 107.43 406.896 107.293 407.115 107.184C407.334 107.047 407.553 106.965 407.771 106.937C408.264 106.473 408.701 106.062 409.084 105.707C409.494 105.352 409.918 104.996 410.355 104.641C411.176 103.984 411.969 103.273 412.734 102.508C413.5 101.742 414.115 100.785 414.58 99.6367C414.854 99.4726 415.141 99.3906 415.441 99.3906C415.742 99.3906 416.057 99.4589 416.385 99.5956C416.713 99.7324 417.027 99.8691 417.328 100.006C417.41 100.06 417.479 100.102 417.533 100.129C417.615 100.156 417.684 100.184 417.738 100.211C417.738 100.484 417.848 100.717 418.066 100.908C418.176 100.99 418.244 101.045 418.271 101.072C418.299 101.1 418.34 101.127 418.395 101.154C418.805 101.373 419.064 101.592 419.174 101.81C419.365 102.439 419.707 102.918 420.199 103.246C420.145 103.519 420.145 103.779 420.199 104.025C420.281 104.244 420.377 104.477 420.486 104.723C420.514 104.805 420.541 104.887 420.568 104.969C420.596 105.051 420.637 105.146 420.691 105.256L419.912 105.174L420.035 105.953C420.09 106.336 420.049 106.76 419.912 107.225C419.803 107.689 419.666 108.059 419.502 108.332C419.529 109.043 419.543 109.603 419.543 110.014C419.57 110.396 419.557 110.766 419.502 111.121C419.447 111.449 419.365 111.764 419.256 112.064C419.174 112.365 419.051 112.693 418.887 113.049C418.996 114.799 418.791 116.398 418.271 117.848C417.779 119.269 417.26 120.609 416.713 121.867C416.658 122.004 416.59 122.141 416.508 122.277C416.453 122.414 416.398 122.551 416.344 122.687C416.098 122.769 415.879 122.865 415.688 122.975C415.496 123.057 415.291 123.152 415.072 123.262ZM434.021 113.254C433.83 113.418 433.666 113.623 433.529 113.869C433.393 114.088 433.256 114.32 433.119 114.566C432.982 114.867 432.832 115.154 432.668 115.428C432.504 115.701 432.299 115.947 432.053 116.166C431.916 116.576 431.779 116.904 431.643 117.15C431.506 117.369 431.287 117.629 430.986 117.93C430.713 119.023 430.07 120.213 429.059 121.498C429.031 121.744 428.949 121.99 428.812 122.236C428.703 122.455 428.58 122.674 428.443 122.893C428.389 122.975 428.334 123.07 428.279 123.18C428.225 123.262 428.184 123.33 428.156 123.385L428.074 123.795C427.938 124.014 427.787 124.205 427.623 124.369C427.459 124.533 427.309 124.684 427.172 124.82C427.117 124.902 427.021 125.012 426.885 125.148L426.27 125.394C424.273 125.121 423.057 124.055 422.619 122.195L422.66 121.785C422.715 121.648 422.756 121.512 422.783 121.375C422.838 121.211 422.893 121.047 422.947 120.883C423.057 120.5 423.18 120.117 423.316 119.734C423.48 119.352 423.713 119.01 424.014 118.709C424.068 118.518 424.191 118.217 424.383 117.807C424.574 117.369 424.902 116.727 425.367 115.879C425.75 115.223 426.051 114.703 426.27 114.32C426.488 113.937 426.666 113.637 426.803 113.418C426.529 112.98 426.201 112.584 425.818 112.228C425.463 111.545 425.148 110.889 424.875 110.26C424.629 109.631 424.438 109.07 424.301 108.578C424.273 108.223 424.232 107.922 424.178 107.676C424.123 107.43 424.068 107.17 424.014 106.896C423.932 106.596 423.863 106.295 423.809 105.994C423.754 105.693 423.727 105.379 423.727 105.051C423.59 104.859 423.508 104.668 423.48 104.477L423.562 104.066C423.645 103.875 423.658 103.629 423.604 103.328C423.549 103 423.48 102.672 423.398 102.344C423.344 102.07 423.275 101.769 423.193 101.441C423.139 101.113 423.125 100.785 423.152 100.457C423.18 100.129 423.262 99.8281 423.398 99.5546C423.562 99.2538 423.822 98.9941 424.178 98.7753L424.875 98.7343C425.121 98.871 425.354 99.0078 425.572 99.1445C425.818 99.2538 426.051 99.3769 426.27 99.5136C426.57 99.6503 426.857 99.787 427.131 99.9238C427.404 100.06 427.691 100.238 427.992 100.457L428.279 101.031L428.812 101.482V101.934C428.84 102.043 428.854 102.193 428.854 102.385C428.854 102.74 428.908 102.959 429.018 103.041L429.182 103.533C429.182 103.916 429.223 104.285 429.305 104.641C429.387 104.969 429.469 105.283 429.551 105.584C429.633 105.885 429.715 106.199 429.797 106.527C429.879 106.855 429.893 107.211 429.838 107.594C430.002 107.512 430.139 107.416 430.248 107.307C430.303 107.252 430.357 107.211 430.412 107.184C430.467 107.156 430.521 107.115 430.576 107.06L432.996 103.779L432.914 103.369L433.775 102.549C433.994 102.33 434.199 102.125 434.391 101.934C434.609 101.742 434.787 101.537 434.924 101.318L435.375 100.99C436.25 99.623 437.494 98.7753 439.107 98.4472L439.682 98.3652L439.846 98.8984C439.955 99.1992 440.174 99.4726 440.502 99.7187C440.857 99.9648 441.227 100.197 441.609 100.416L441.979 100.662C442.115 100.935 442.184 101.141 442.184 101.277C442.184 101.414 442.17 101.537 442.143 101.646L442.307 102.057C442.088 102.713 441.814 103.191 441.486 103.492C441.186 103.793 440.885 104.066 440.584 104.312C440.338 104.531 440.105 104.736 439.887 104.928C439.695 105.092 439.545 105.31 439.436 105.584L439.148 105.912C438.574 106.24 438.205 106.678 438.041 107.225L437.918 107.717H437.426C437.398 107.717 437.33 107.771 437.221 107.881C437.139 107.963 437.002 108.195 436.811 108.578C436.619 108.852 436.482 109.029 436.4 109.111C436.318 109.193 436.25 109.262 436.195 109.316C436.168 109.426 436.127 109.535 436.072 109.644C436.045 109.727 436.004 109.836 435.949 109.973C435.594 110.328 435.375 110.602 435.293 110.793C435.211 110.957 435.115 111.148 435.006 111.367C434.896 111.586 434.787 111.805 434.678 112.023C434.596 112.215 434.445 112.42 434.227 112.639L434.021 113.254ZM475.775 117.314C475.939 117.396 476.035 117.533 476.062 117.725C476.09 117.916 476.09 118.066 476.062 118.176C475.57 118.805 475.229 119.242 475.037 119.488C474.846 119.734 474.709 119.926 474.627 120.062C474.545 120.172 474.449 120.268 474.34 120.35C474.258 120.432 474.053 120.609 473.725 120.883C472.494 121.621 471.223 122.277 469.91 122.852C468.625 123.426 467.271 123.822 465.85 124.041C465.631 124.342 465.207 124.547 464.578 124.656C463.977 124.793 463.416 124.916 462.896 125.025C462.787 124.971 462.719 124.889 462.691 124.779C462.691 124.697 462.637 124.629 462.527 124.574C462.5 124.848 462.377 124.984 462.158 124.984C461.939 125.012 461.666 124.957 461.338 124.82C461.037 124.711 460.709 124.547 460.354 124.328C460.025 124.137 459.738 123.959 459.492 123.795C459.355 124.014 459.205 124.232 459.041 124.451C458.904 124.67 458.727 124.82 458.508 124.902C458.207 124.848 457.975 124.807 457.811 124.779C457.674 124.752 457.537 124.807 457.4 124.943C457.236 124.861 457.1 124.766 456.99 124.656C456.908 124.547 456.812 124.437 456.703 124.328C456.621 124.246 456.512 124.164 456.375 124.082C456.266 124 456.102 123.932 455.883 123.877C455.938 123.768 455.91 123.603 455.801 123.385C455.691 123.139 455.527 122.988 455.309 122.934C455.418 122.742 455.363 122.51 455.145 122.236C454.953 121.935 454.803 121.607 454.693 121.252C454.748 120.951 454.789 120.623 454.816 120.268C454.844 119.912 455.008 119.707 455.309 119.652C455.281 119.461 455.24 119.297 455.186 119.16C455.131 119.023 455.076 118.887 455.021 118.75C455.213 118.586 455.35 118.394 455.432 118.176C455.514 117.93 455.582 117.684 455.637 117.437C455.691 117.191 455.76 116.945 455.842 116.699C455.924 116.453 456.074 116.248 456.293 116.084C456.539 115.264 456.73 114.662 456.867 114.279C457.004 113.869 457.1 113.473 457.154 113.09C457.236 112.707 457.318 112.297 457.4 111.859C457.51 111.422 457.688 110.875 457.934 110.219C457.906 109.809 457.947 109.453 458.057 109.152C458.166 108.824 458.275 108.51 458.385 108.209C458.521 107.881 458.631 107.553 458.713 107.225C458.795 106.869 458.781 106.459 458.672 105.994C458.289 106.021 458.016 106.158 457.852 106.404C457.688 106.623 457.578 106.924 457.523 107.307C457.305 107.525 457.031 107.635 456.703 107.635C456.402 107.607 456.129 107.635 455.883 107.717C454.926 107.334 454.133 106.787 453.504 106.076C452.875 105.365 452.369 104.531 451.986 103.574C452.232 102.945 452.602 102.426 453.094 102.016C453.586 101.578 454.146 101.223 454.775 100.949C455.404 100.648 456.074 100.416 456.785 100.252C457.496 100.06 458.18 99.8828 458.836 99.7187C459.902 99.5273 460.969 99.3085 462.035 99.0624C463.102 98.8163 464.25 98.7343 465.48 98.8163C465.645 98.7343 465.836 98.6933 466.055 98.6933C466.301 98.666 466.547 98.6523 466.793 98.6523C467.039 98.6523 467.271 98.6523 467.49 98.6523C467.736 98.6249 467.941 98.5703 468.105 98.4882C468.242 98.6523 468.434 98.7617 468.68 98.8163C468.953 98.8437 469.24 98.9667 469.541 99.1855C469.869 98.9394 470.143 98.8847 470.361 99.0214C470.607 99.1581 470.826 99.3085 471.018 99.4726C471.209 99.6367 471.387 99.787 471.551 99.9238C471.742 100.06 471.934 100.129 472.125 100.129C472.316 100.375 472.549 100.607 472.822 100.826C473.123 101.045 473.396 101.277 473.643 101.523C473.916 101.742 474.135 101.988 474.299 102.262C474.49 102.535 474.586 102.85 474.586 103.205C474.559 103.342 474.6 103.424 474.709 103.451C474.818 103.478 474.9 103.533 474.955 103.615C474.982 104.463 474.846 105.201 474.545 105.83C474.271 106.432 473.916 106.992 473.479 107.512C473.068 108.031 472.604 108.523 472.084 108.988C471.592 109.453 471.141 109.945 470.73 110.465C471.004 110.82 471.318 111.135 471.674 111.408C472.029 111.682 472.385 111.955 472.74 112.228C473.123 112.502 473.479 112.789 473.807 113.09C474.135 113.391 474.408 113.746 474.627 114.156C474.682 114.211 474.75 114.266 474.832 114.32C474.914 114.348 474.996 114.389 475.078 114.443C475.16 114.717 475.27 115.004 475.406 115.305C475.543 115.578 475.652 115.852 475.734 116.125C475.844 116.371 475.912 116.603 475.939 116.822C475.967 117.014 475.912 117.178 475.775 117.314ZM468.557 103.615C467.162 103.56 465.768 103.684 464.373 103.984C463.006 104.285 461.857 104.709 460.928 105.256C461.393 105.639 461.857 105.98 462.322 106.281C462.814 106.582 463.197 106.992 463.471 107.512C464.537 107.074 465.48 106.527 466.301 105.871C467.121 105.187 467.873 104.435 468.557 103.615ZM469.09 116.699C469.172 116.426 469.322 116.207 469.541 116.043C469.76 115.879 469.979 115.728 470.197 115.592C470.416 115.428 470.607 115.264 470.771 115.1C470.936 114.908 471.004 114.648 470.977 114.32C470.102 113.855 469.295 113.582 468.557 113.5C467.846 113.391 467.162 113.391 466.506 113.5C465.877 113.582 465.262 113.719 464.66 113.91C464.086 114.102 463.498 114.238 462.896 114.32C462.596 115.113 462.281 115.975 461.953 116.904C461.625 117.834 461.311 118.736 461.01 119.611C461.83 119.502 462.582 119.338 463.266 119.119C463.949 118.873 464.605 118.613 465.234 118.34C465.891 118.066 466.52 117.793 467.121 117.519C467.75 117.219 468.406 116.945 469.09 116.699ZM488.162 123.549C487.396 123.795 486.562 124.041 485.66 124.287C484.758 124.533 483.855 124.656 482.953 124.656C481.586 124.656 480.506 124.314 479.713 123.631C479.576 123.33 479.453 123.125 479.344 123.016C479.262 122.906 479.18 122.797 479.098 122.687C479.043 122.551 479.002 122.373 478.975 122.154C478.646 121.771 478.387 121.334 478.195 120.842C478.004 120.322 477.867 119.803 477.785 119.283C477.73 118.736 477.717 118.189 477.744 117.643C477.799 117.096 477.895 116.576 478.031 116.084C478.086 115.975 478.113 115.865 478.113 115.756C478.141 115.646 478.168 115.523 478.195 115.387C478.305 114.949 478.414 114.525 478.523 114.115C478.66 113.705 478.838 113.35 479.057 113.049C478.947 112.803 478.947 112.529 479.057 112.228C479.166 111.928 479.289 111.654 479.426 111.408C479.809 110.369 480.123 109.494 480.369 108.783C480.643 108.045 480.916 107.32 481.189 106.609C481.654 105.379 482.092 104.162 482.502 102.959C482.912 101.756 483.281 100.457 483.609 99.0624C483.828 98.9257 483.992 98.83 484.102 98.7753C484.266 98.7206 484.402 98.6796 484.512 98.6523C485.004 98.8984 485.578 99.1445 486.234 99.3906C486.891 99.6093 487.438 99.7187 487.875 99.7187C488.094 99.8554 488.23 99.9648 488.285 100.047C488.34 100.102 488.395 100.156 488.449 100.211C488.75 100.566 489.01 100.935 489.229 101.318C489.447 101.674 489.516 102.152 489.434 102.754C489.27 103 489.146 103.123 489.064 103.123C488.928 103.67 488.777 104.135 488.613 104.518C488.477 104.9 488.326 105.283 488.162 105.666C487.971 106.076 487.793 106.486 487.629 106.896C487.465 107.307 487.328 107.812 487.219 108.414C487.109 108.551 487.027 108.674 486.973 108.783C486.945 108.893 486.904 109.016 486.85 109.152C486.795 109.289 486.727 109.439 486.645 109.603C486.59 109.74 486.494 109.863 486.357 109.973C486.275 110.684 486.139 111.258 485.947 111.695C485.783 112.133 485.605 112.57 485.414 113.008C485.086 113.801 484.785 114.594 484.512 115.387C484.266 116.18 484.115 117.082 484.061 118.094C484.197 118.039 484.32 118.012 484.43 118.012C484.566 118.012 484.689 118.012 484.799 118.012C485.045 118.012 485.332 118.053 485.66 118.135C486.48 117.697 487.369 117.437 488.326 117.355C489.311 117.273 490.281 117.219 491.238 117.191C491.621 117.191 492.004 117.191 492.387 117.191C492.77 117.191 493.125 117.164 493.453 117.109C493.699 117.246 493.85 117.328 493.904 117.355C493.986 117.355 494.096 117.355 494.232 117.355C494.424 117.355 494.588 117.369 494.725 117.396C495.053 117.697 495.367 117.916 495.668 118.053C495.969 118.189 496.283 118.312 496.611 118.422C496.912 118.531 497.199 118.654 497.473 118.791C497.773 118.9 498.061 119.064 498.334 119.283L498.621 121.047C498.812 121.293 498.895 121.457 498.867 121.539C498.867 121.758 498.812 121.922 498.703 122.031L498.785 122.482C498.375 122.564 498.088 122.66 497.924 122.769C497.787 122.879 497.65 123.002 497.514 123.139C497.295 123.166 497.131 123.18 497.021 123.18C496.939 123.18 496.857 123.18 496.775 123.18C496.393 123.18 495.928 123.248 495.381 123.385C494.643 123.139 493.877 123.016 493.084 123.016C492.783 123.016 492.469 123.029 492.141 123.057C491.812 123.084 491.484 123.111 491.156 123.139C490.828 123.193 490.486 123.234 490.131 123.262C489.803 123.289 489.461 123.303 489.105 123.303L488.162 123.549ZM523.641 111.695C523.613 112.023 523.641 112.338 523.723 112.639C523.805 112.939 523.9 113.24 524.01 113.541C524.146 113.814 524.27 114.102 524.379 114.402C524.488 114.703 524.57 115.004 524.625 115.305C524.68 115.687 524.68 116.111 524.625 116.576C524.57 117.014 524.475 117.451 524.338 117.889C524.201 118.299 524.023 118.682 523.805 119.037C523.586 119.365 523.326 119.611 523.025 119.775C522.643 120.268 522.178 120.65 521.631 120.924C521.084 121.197 520.578 121.525 520.113 121.908C519.812 122.1 519.471 122.236 519.088 122.318C518.732 122.4 518.363 122.482 517.98 122.564C517.68 122.728 517.324 122.906 516.914 123.098C516.504 123.262 516.08 123.426 515.643 123.59C515.205 123.727 514.768 123.836 514.33 123.918C513.893 123.973 513.51 123.986 513.182 123.959C512.361 124.26 511.555 124.451 510.762 124.533C509.996 124.643 509.094 124.588 508.055 124.369C507.07 124.506 506.154 124.465 505.307 124.246C504.486 124.027 503.748 123.685 503.092 123.221C502.463 122.728 501.902 122.154 501.41 121.498C500.945 120.814 500.562 120.103 500.262 119.365C500.043 117.807 500.098 116.398 500.426 115.141C500.754 113.855 501.219 112.68 501.82 111.613C502.449 110.519 503.16 109.521 503.953 108.619C504.746 107.689 505.512 106.787 506.25 105.912C506.414 105.967 506.537 105.967 506.619 105.912C506.729 105.83 506.824 105.734 506.906 105.625C506.988 105.488 507.07 105.365 507.152 105.256C507.262 105.146 507.385 105.078 507.521 105.051C507.713 104.641 507.986 104.34 508.342 104.148C508.725 103.93 509.025 103.629 509.244 103.246C509.49 103.191 509.695 103.109 509.859 103C510.023 102.891 510.174 102.768 510.311 102.631C510.475 102.494 510.639 102.371 510.803 102.262C510.967 102.125 511.158 102.029 511.377 101.975V101.523C511.869 101.305 512.225 101.059 512.443 100.785C512.689 100.484 512.977 100.129 513.305 99.7187C513.551 99.6913 513.742 99.6777 513.879 99.6777C514.043 99.6777 514.275 99.6503 514.576 99.5956C514.795 99.2128 514.986 98.9257 515.15 98.7343C515.342 98.5429 515.615 98.3378 515.971 98.1191C516.299 98.2831 516.654 98.3925 517.037 98.4472C517.447 98.5019 517.803 98.6796 518.104 98.9804C518.131 99.2538 518.213 99.4726 518.35 99.6367C518.486 99.7734 518.637 99.9101 518.801 100.047C518.965 100.156 519.115 100.279 519.252 100.416C519.416 100.553 519.525 100.744 519.58 100.99C519.689 101.018 519.758 101.004 519.785 100.949C519.84 100.894 519.922 100.881 520.031 100.908C520.113 101.291 520.209 101.551 520.318 101.687C520.428 101.797 520.537 102.029 520.646 102.385C520.51 102.658 520.4 102.945 520.318 103.246C520.264 103.519 520.1 103.725 519.826 103.861C519.799 104.053 519.854 104.162 519.99 104.189C520.127 104.189 520.209 104.258 520.236 104.394C520.264 104.641 520.223 104.818 520.113 104.928C520.77 105.994 521.357 107.129 521.877 108.332C522.396 109.508 522.984 110.629 523.641 111.695ZM518.514 115.592C518.623 115.291 518.76 115.045 518.924 114.853C519.115 114.662 519.225 114.375 519.252 113.992C519.115 113.773 519.033 113.609 519.006 113.5C518.979 113.363 518.965 113.158 518.965 112.885C518.363 112.037 517.844 111.135 517.406 110.178C516.969 109.193 516.477 108.277 515.93 107.43C515.875 107.539 515.779 107.648 515.643 107.758C515.506 107.867 515.355 107.84 515.191 107.676C515.137 107.894 515.041 108.059 514.904 108.168C514.768 108.25 514.617 108.291 514.453 108.291C514.289 108.264 514.111 108.223 513.92 108.168C513.756 108.086 513.605 107.99 513.469 107.881C512.676 108.51 511.883 109.125 511.09 109.727C510.297 110.328 509.586 111.025 508.957 111.818C508.848 111.873 508.779 111.9 508.752 111.9C508.725 111.873 508.643 111.887 508.506 111.941C508.287 112.461 508.014 112.939 507.686 113.377C507.385 113.787 507.084 114.211 506.783 114.648C506.482 115.086 506.223 115.551 506.004 116.043C505.785 116.535 505.662 117.109 505.635 117.766C506.1 118.148 506.646 118.381 507.275 118.463C507.904 118.545 508.547 118.559 509.203 118.504C509.887 118.449 510.543 118.367 511.172 118.258C511.828 118.121 512.43 118.053 512.977 118.053C514.125 117.779 515.109 117.424 515.93 116.986C516.75 116.521 517.611 116.057 518.514 115.592ZM555.223 116.617C554.566 117.793 553.705 118.709 552.639 119.365C551.572 119.994 550.396 120.527 549.111 120.965C547.826 121.375 546.473 121.744 545.051 122.072C543.656 122.4 542.303 122.824 540.99 123.344C540.607 123.344 540.266 123.357 539.965 123.385C539.691 123.412 539.418 123.453 539.145 123.508C538.898 123.535 538.652 123.576 538.406 123.631C538.16 123.658 537.887 123.685 537.586 123.713C537.477 123.685 537.408 123.713 537.381 123.795C537.354 123.85 537.312 123.904 537.258 123.959C536.793 124.041 536.369 124.082 535.986 124.082C535.631 124.082 535.33 124.082 535.084 124.082C534.756 124.082 534.414 124.123 534.059 124.205C533.73 124.314 533.43 124.355 533.156 124.328C531.105 124.219 529.492 123.494 528.316 122.154C527.168 120.787 526.525 118.9 526.389 116.494C526.416 116.357 526.389 116.275 526.307 116.248C526.252 116.221 526.197 116.18 526.143 116.125C526.143 115.852 526.17 115.619 526.225 115.428C526.307 115.236 526.32 114.99 526.266 114.689C526.977 113.185 527.783 111.791 528.686 110.506C529.588 109.193 530.668 108.045 531.926 107.06C532.117 106.896 532.281 106.732 532.418 106.568C532.555 106.404 532.678 106.24 532.787 106.076C532.924 105.912 533.074 105.775 533.238 105.666C533.402 105.529 533.607 105.434 533.854 105.379C534.428 104.723 535.111 104.121 535.904 103.574C536.697 103.027 537.531 102.508 538.406 102.016C539.281 101.496 540.143 100.99 540.99 100.498C541.865 99.9785 542.658 99.4042 543.369 98.7753C543.67 98.912 543.889 98.9531 544.025 98.8984C544.162 98.8437 544.312 98.8437 544.477 98.8984C544.668 99.3085 544.928 99.5956 545.256 99.7597C545.611 99.9238 545.953 100.102 546.281 100.293C546.637 100.457 546.965 100.662 547.266 100.908C547.566 101.154 547.799 101.482 547.963 101.893C547.799 101.893 547.717 101.961 547.717 102.098C547.744 102.207 547.785 102.33 547.84 102.467C547.895 102.576 547.908 102.699 547.881 102.836C547.881 102.945 547.785 103 547.594 103C547.621 103.137 547.703 103.219 547.84 103.246C548.004 103.246 548.086 103.314 548.086 103.451C548.086 103.588 548.045 103.697 547.963 103.779C547.908 103.861 547.908 103.998 547.963 104.189C547.416 104.545 546.801 104.887 546.117 105.215C545.461 105.543 544.764 105.898 544.025 106.281C543.314 106.637 542.562 107.033 541.77 107.471C541.004 107.881 540.252 108.359 539.514 108.906C538.775 109.453 538.023 110.068 537.258 110.752C536.492 111.408 535.754 112.105 535.043 112.844C534.332 113.582 533.662 114.348 533.033 115.141C532.404 115.906 531.871 116.672 531.434 117.437C531.488 117.574 531.543 117.684 531.598 117.766C531.68 117.82 531.748 117.916 531.803 118.053C532.678 118.107 533.484 118.107 534.223 118.053C534.988 117.971 535.754 118.012 536.52 118.176C536.602 118.121 536.656 118.039 536.684 117.93C536.711 117.82 536.779 117.738 536.889 117.684C538.447 117.519 539.896 117.273 541.236 116.945C542.576 116.59 543.943 116.221 545.338 115.838C545.119 115.756 544.914 115.687 544.723 115.633C544.559 115.551 544.395 115.482 544.23 115.428C544.094 115.291 544.094 115.182 544.23 115.1C544.395 114.99 544.531 114.881 544.641 114.771C544.258 114.553 543.943 114.279 543.697 113.951C543.479 113.623 543.342 113.185 543.287 112.639C543.451 112.502 543.533 112.338 543.533 112.146C543.533 111.955 543.451 111.805 543.287 111.695C543.178 111.668 543.109 111.668 543.082 111.695C543.055 111.723 543.027 111.764 543 111.818C543 111.873 542.986 111.928 542.959 111.982C542.932 112.01 542.863 111.996 542.754 111.941C542.781 111.695 542.836 111.49 542.918 111.326C543.027 111.162 543.109 110.971 543.164 110.752L545.994 108.865C546.295 109.084 546.664 109.33 547.102 109.603C547.539 109.85 547.99 110.109 548.455 110.383C548.947 110.629 549.439 110.889 549.932 111.162C550.451 111.408 550.93 111.654 551.367 111.9C551.75 112.064 552.092 112.283 552.393 112.557C552.693 112.83 552.98 113.117 553.254 113.418C553.527 113.691 553.801 113.965 554.074 114.238C554.375 114.512 554.717 114.744 555.1 114.935C555.045 115.291 555.059 115.578 555.141 115.797C555.223 116.016 555.25 116.289 555.223 116.617ZM564.861 95.7812C564.861 96.0273 564.82 96.3281 564.738 96.6835C564.684 97.039 564.629 97.3945 564.574 97.7499C564.52 98.1054 564.506 98.4335 564.533 98.7343C564.561 99.0078 564.684 99.1855 564.902 99.2675C564.41 100.717 564.068 101.934 563.877 102.918C563.713 103.902 563.562 104.846 563.426 105.748C563.316 106.623 563.166 107.553 562.975 108.537C562.783 109.521 562.441 110.725 561.949 112.146C561.648 113.021 561.279 113.637 560.842 113.992C560.404 114.32 559.939 114.484 559.447 114.484C558.955 114.484 558.449 114.348 557.93 114.074C557.41 113.801 556.932 113.5 556.494 113.172C556.412 112.652 556.398 112.023 556.453 111.285C556.535 110.519 556.631 109.727 556.74 108.906C556.85 108.086 556.959 107.307 557.068 106.568C557.178 105.803 557.26 105.16 557.314 104.641C557.588 104.34 557.779 104.094 557.889 103.902C557.998 103.711 558.066 103.506 558.094 103.287C558.148 103.068 558.189 102.795 558.217 102.467C558.244 102.139 558.312 101.674 558.422 101.072C558.477 100.771 558.449 100.512 558.34 100.293C558.258 100.047 558.244 99.8144 558.299 99.5956C558.354 99.4863 558.436 99.4042 558.545 99.3495C558.682 99.2949 558.764 99.1992 558.791 99.0624C558.9 98.707 558.928 98.4335 558.873 98.2421C558.818 98.0234 558.859 97.7636 558.996 97.4628C559.133 97.2441 559.297 96.9023 559.488 96.4374C559.707 95.9453 559.789 95.4394 559.734 94.9199C559.98 94.7285 560.213 94.5097 560.432 94.2636C560.65 94.0175 560.869 93.7988 561.088 93.6074C561.334 93.3886 561.594 93.2109 561.867 93.0742C562.168 92.9374 562.523 92.8691 562.934 92.8691C563.152 93.1699 563.316 93.457 563.426 93.7304C563.535 94.0038 563.631 94.2636 563.713 94.5097C563.822 94.7558 563.959 94.9882 564.123 95.207C564.287 95.4257 564.533 95.6171 564.861 95.7812ZM560.801 119.119C560.855 119.338 560.896 119.543 560.924 119.734C560.951 119.926 560.979 120.131 561.006 120.35C560.842 120.924 560.664 121.443 560.473 121.908C560.391 122.1 560.336 122.223 560.309 122.277C560.281 122.332 560.268 122.373 560.268 122.4C560.268 122.428 560.281 122.469 560.309 122.523C560.336 122.551 560.35 122.66 560.35 122.852L560.145 123.344C560.008 123.535 559.844 123.685 559.652 123.795C559.488 123.904 559.311 124 559.119 124.082C559.037 124.137 558.941 124.178 558.832 124.205C558.75 124.26 558.682 124.314 558.627 124.369L558.504 124.861L557.93 124.943C557.492 125.053 557.096 125.107 556.74 125.107H556.289C555.961 124.807 555.701 124.574 555.51 124.41C555.318 124.246 555.1 124.096 554.854 123.959C554.553 123.439 554.375 122.988 554.32 122.605C554.266 122.25 554.197 122.018 554.115 121.908L553.541 121.334L554.033 120.965L553.541 120.185C553.869 119.939 554.115 119.762 554.279 119.652C554.443 119.543 554.58 119.434 554.689 119.324C554.826 119.187 554.963 119.023 555.1 118.832C555.236 118.641 555.455 118.326 555.756 117.889L556.125 117.355L556.617 117.643C556.754 117.725 557 117.807 557.355 117.889C557.738 117.943 558.066 117.998 558.34 118.053C558.777 118.189 559.201 118.299 559.611 118.381C560.049 118.435 560.391 118.572 560.637 118.791L560.801 119.119Z" fill="black"/>
</svg>
