<svg id="Layer_1" data-name="Layer 1" xmlns="http://www.w3.org/2000/svg" viewBox="0 0 347.89 117.06"><title>logo</title><path d="M131,80.08a48.61,48.61,0,0,1-6.25,5.34,8.92,8.92,0,0,1-5,1.78,3.8,3.8,0,0,1-3-1.32,5.37,5.37,0,0,1-1.12-3.58,27,27,0,0,1,1.57-8,30.79,30.79,0,0,0,1.58-5.89.84.84,0,0,0-1-.94,1.56,1.56,0,0,0-.7.21,6.46,6.46,0,0,0-1,.58,13.22,13.22,0,0,0-1.19,1c-.43.39-.88.84-1.35,1.34s-1,1.07-1.51,1.67a6.55,6.55,0,0,0-1.52,2.54l-1,4.17-1.77,6.9-7.39,1.33,2.83-12c.21-.88.47-2.16.76-3.86a30.21,30.21,0,0,0,.44-3c0-.66-.23-1-.68-1a1.31,1.31,0,0,0-.58.2,6.52,6.52,0,0,0-1,.61,16.75,16.75,0,0,0-1.37,1.11c-.53.47-1.09,1-1.7,1.61s-1.3,1.35-2,2.13a7.14,7.14,0,0,0-1.75,3.68c-.32,1.67-.53,3.17-.65,4.49s-.21,2.81-.23,4.44l-6.48,1.55c-.16-2.24-.23-4.11-.23-5.61a34.66,34.66,0,0,1,1.11-9.3A59.2,59.2,0,0,1,92.43,63l7.06-1.38a65.45,65.45,0,0,0-2.95,9.2q7.86-9.14,12-9.14A3,3,0,0,1,111,62.9a5.24,5.24,0,0,1,.94,3.26,33.88,33.88,0,0,1-.29,3.44,65.07,65.07,0,0,1,7.08-6.43,7,7,0,0,1,4-1.51A3.21,3.21,0,0,1,125.36,63a5.07,5.07,0,0,1,1,3.27,25.43,25.43,0,0,1-1.72,8,26.17,26.17,0,0,0-1.72,6.48c0,1.08.4,1.63,1.2,1.63a4.13,4.13,0,0,0,2.11-1A44.59,44.59,0,0,0,131,76.72Z"/><path d="M152.82,80.08a36,36,0,0,1-6.65,5.39,12.59,12.59,0,0,1-6.51,1.73,8.49,8.49,0,0,1-6.41-2.53A9.3,9.3,0,0,1,130.81,78a16.74,16.74,0,0,1,4.29-11.19q4.31-5,9.52-5a6.48,6.48,0,0,1,4.35,1.4,4.61,4.61,0,0,1,1.64,3.68q0,6-12.85,9.81,1.17,5.68,6.1,5.69a7.13,7.13,0,0,0,3.68-1,31.35,31.35,0,0,0,5.28-4.6Zm-15.29-5.4q7.47-2.1,7.47-7.76c0-1.87-.68-2.81-2-2.81s-2.51,1-3.68,2.94A14.71,14.71,0,0,0,137.53,74.68Z"/><path d="M172.15,80.08a42.08,42.08,0,0,1-7,5.39,11.4,11.4,0,0,1-5.71,1.73,6.11,6.11,0,0,1-5-2.42,10.23,10.23,0,0,1-1.91-6.51,51.17,51.17,0,0,1,2.66-14.71,93.37,93.37,0,0,1,6.45-15.82L169.05,45a2.15,2.15,0,0,1,.53-.11c.56,0,1,.41,1.39,1.24a8.49,8.49,0,0,1,.54,3.34A25.82,25.82,0,0,1,168.76,61a52,52,0,0,1-8.58,11.91c-.16,2-.23,3.42-.23,4.18a7.52,7.52,0,0,0,.93,4,2.81,2.81,0,0,0,2.48,1.49,6.31,6.31,0,0,0,3.36-1.14,39.24,39.24,0,0,0,5.43-4.73ZM161,68.67a35.76,35.76,0,0,0,6-9.24,22.08,22.08,0,0,0,2.31-8.8,4.06,4.06,0,0,0-.32-1.74c-.22-.44-.49-.66-.82-.66-.72,0-1.77,1.8-3.14,5.38A101,101,0,0,0,161,68.67Z"/><path d="M186.51,80.08q-6.82,7.19-10.22,7.18a3.73,3.73,0,0,1-3.15-1.91,8.37,8.37,0,0,1-1.28-4.8q0-6.22,4.2-17.22l7.42-1.55h.35l-2.92,9.14A30.91,30.91,0,0,0,179.1,79a2.64,2.64,0,0,0,.42,1.56,1.27,1.27,0,0,0,1.07.6,4,4,0,0,0,2.29-.83,27.59,27.59,0,0,0,3.63-3.61Zm-.58-29.72q0,7-5.17,7a6.41,6.41,0,0,1-4.29-1.52,21.34,21.34,0,0,0,2.63-5.78,7.63,7.63,0,0,0,3.7,1.43A5.25,5.25,0,0,0,185.93,50.36Z"/><path d="M217.69,80.08A60.44,60.44,0,0,1,211,85.86a6.92,6.92,0,0,1-3.85,1.34c-3.08,0-4.52-2.71-4.35-8.14a30.07,30.07,0,0,1-5.39,6.16,8,8,0,0,1-5.09,2A5.3,5.3,0,0,1,188,84.8a9.61,9.61,0,0,1-1.8-5.91,15.8,15.8,0,0,1,2.41-8.35,19.78,19.78,0,0,1,6.17-6.43,12.71,12.71,0,0,1,6.66-2.45A5.17,5.17,0,0,1,206.51,65l6-3.3h1.64l-2.57,8.55c-1.33,4.31-2,7.25-2,8.85s.59,2.51,1.78,2.51a4,4,0,0,0,2.51-1.21q1.36-1.22,3.85-3.7Zm-21.37,1.61q2.93,0,5.5-5a20.2,20.2,0,0,0,2.59-9.18,4,4,0,0,0-.73-2.55,2.36,2.36,0,0,0-2-.92q-2.92,0-5.53,5a19.85,19.85,0,0,0-2.61,9.14,4,4,0,0,0,.77,2.55A2.4,2.4,0,0,0,196.32,81.69Z"/><path d="M66.53,59.26q-7.86.27-11.52.27-5.64,0-15.59-.27-2.1,2.3-5.11,5.41t-5.69,5.76C26.83,72.2,25.29,73.7,24,75s-2.35,2.28-3.18,3.11q-7.26,7.06-9.46,9.23a38.48,38.48,0,0,1-4.62,3.9,7.78,7.78,0,0,1-4.45,1.73C.76,92.92,0,92.23,0,90.83s1.09-3.89,3.27-7.07a46.1,46.1,0,0,1,7.4-8.45q4.13-3.68,6.75-3.67a5,5,0,0,1,2,.66L31.89,59a55.58,55.58,0,0,0-6.15-.42A19.85,19.85,0,0,1,20.63,58a2.07,2.07,0,0,1-1.31-2.23q0-2.8,6-8.84A16,16,0,0,1,31.5,42.7q2.88-.91,11-1a27.91,27.91,0,0,0-6.78,1.54,3.27,3.27,0,0,0-2.19,2.66H37c1.07,0,2.47,0,4.19,0s3,0,3.83-.1Q55.79,35.3,64.57,27.54A231.23,231.23,0,0,1,83.07,12.8,181,181,0,0,1,103.79,0,9.5,9.5,0,0,1,106,5.89a13.58,13.58,0,0,1-1.67,5.9q-1.68,3.33-7.08,12.54t-11,19.55c1.23,0,2.24,0,3.05,0S91,44,91.88,44a42.84,42.84,0,0,1,4.55.13c.54.09.82.52.82,1.31a4.17,4.17,0,0,1-1,1.86c-.68.9-1.87,2.38-3.57,4.46s-3.36,4.18-5,6.32l-9.63.78Q70.4,73.29,70.4,75.11c0,1.79.93,2.69,2.81,2.69.92,0,10.72-5.92,17.4-9.77l-.53,3.47c-3.58,2.71-12.36,8.84-14.35,10.39S72,84.73,70.56,85.75a22,22,0,0,1-4,2.3,9.45,9.45,0,0,1-3.64.75,6.24,6.24,0,0,1-4.26-2,7.47,7.47,0,0,1-2.09-5.66,12.67,12.67,0,0,1,1.11-4.29q1.11-2.79,2.39-5.34T66.53,59.26ZM54.16,44.4,75.37,44q3.73-6.36,6.06-10.28t5.11-8.55q2.77-4.62,4.78-7.83c1.33-2.13,2.8-4.56,4.42-7.27Q91,13,86.11,16.63T75.05,25.31q-6.17,5.07-10.94,9.43T54.16,44.4Z"/><path d="M281.81,38.24a23.23,23.23,0,0,0-6.3,9.11q-2,5.2-4.05,21.66t-6.69,25.93a38.78,38.78,0,0,1-14.51,15.79,39.58,39.58,0,0,1-21.76,6.33q-8.42,0-13.68-4.18a13,13,0,0,1-5.27-10.66,5.52,5.52,0,0,1,1.52-4A31.06,31.06,0,0,1,217.3,94q4.69-2.66,6.36-2.65a2.66,2.66,0,0,1,1.92.76,2.44,2.44,0,0,1,.79,1.82c0,.44-.21,2.08-.63,4.9s-.63,4.51-.63,5q0,7.88,6.63,7.88,7.48,0,12.58-8.78t7.39-27.42q2.28-18.64,6.92-26.33t10.83-10.89c4.13-2.14,7-3.22,8.58-3.22Q279.69,35.12,281.81,38.24ZM269.36,21q14,0,22.25,6.79t8.28,18.11q0,10.47-6.12,16.79T283.2,69a6.79,6.79,0,0,1-3.74-1.46c-1.39-1-2.09-1.86-2.09-2.65q0-.66,3.12-4.77,7.27-9,7.28-17.88,0-7.48-5-11.89T269.09,26a38.17,38.17,0,0,0-23.51,7.92q-10.53,7.92-10.53,17.32a8.49,8.49,0,0,0,5.7,8.54c1.5.67,2.25,1.57,2.25,2.72s-1.66,2.58-5,4.17S232.4,69,231.08,69c-2,0-3.87-1.32-5.63-3.94a15.05,15.05,0,0,1-2.65-8.58q0-12.45,13.38-24T269.36,21Z"/><path d="M294.91,104.51a8.62,8.62,0,0,1-2.56,1.65,5.91,5.91,0,0,1-2,.48,6,6,0,0,1-3.7-1.45q-3.72,5.64-8.53,5.64a6,6,0,0,1-4.87-2.25,9.1,9.1,0,0,1-1.86-6,13.9,13.9,0,0,1,4.19-10.13,13.59,13.59,0,0,1,10-4.23,8,8,0,0,1,3.22.48,2.23,2.23,0,0,1,1.26,1.13,5,5,0,0,1,.23,1.63,35.06,35.06,0,0,1-2.64,11.87,4.06,4.06,0,0,0,2.77,1.22q1.74,0,4.45-3Zm-8.54-14.46a3.22,3.22,0,0,0-1.11-.15c-2.24,0-4,1.17-5.26,3.52a17,17,0,0,0-1.91,8.22,8.23,8.23,0,0,0,.83,4.06,2.54,2.54,0,0,0,2.3,1.45q1.84,0,4-3.39a10.33,10.33,0,0,1-2.43-6.57A9,9,0,0,1,286.37,90.05Z"/><path d="M320.29,104.51q-6,6.31-10.25,6.32a3.54,3.54,0,0,1-2.79-1.22,4.77,4.77,0,0,1-1.06-3.26q0-2.76,2.28-8.46A15.09,15.09,0,0,0,309.68,94c0-.55-.21-.83-.64-.83a2,2,0,0,0-1,.36,13.15,13.15,0,0,0-1.27,1c-.43.4-.91.88-1.45,1.45s-1,1-1.5,1.66l-1.45,1.68a5.41,5.41,0,0,0-1.19,2.46,39.85,39.85,0,0,0-.52,4c-.05.92-.07,2.15-.07,3.7l-5.72,1.35c-.19-2.33-.28-4.06-.28-5.2a31,31,0,0,1,1-7.89,50.25,50.25,0,0,1,3.11-8.38L305,88.19a60.92,60.92,0,0,0-2.62,8.43,49.74,49.74,0,0,1,6.73-6.55,7.86,7.86,0,0,1,4.43-1.83,2.8,2.8,0,0,1,2.2,1,3.64,3.64,0,0,1,.88,2.49c0,1.65-.74,4.38-2.23,8.17A19.49,19.49,0,0,0,312.9,105c0,1,.42,1.55,1.27,1.55q1.89,0,6.12-5Z"/><path d="M347.89,104.51a43.32,43.32,0,0,1-5.68,5,6.47,6.47,0,0,1-3.45,1.31,3.28,3.28,0,0,1-2.91-1.79,10.4,10.4,0,0,1-1.1-5.22,17.62,17.62,0,0,1-4.62,5.22,8,8,0,0,1-4.51,1.79,4.9,4.9,0,0,1-3.88-2.09,7.51,7.51,0,0,1-1.68-4.87,16.18,16.18,0,0,1,4.2-10.7q4.2-4.94,9-4.93a4.7,4.7,0,0,1,2.11.39A6.64,6.64,0,0,1,337.08,90l3.7-15.47a33.21,33.21,0,0,1,6.11-1.06c.35,0,.52.14.52.41s-.43,2-1.29,5.36q-5.17,20.28-5.17,24.47a2.69,2.69,0,0,0,.41,1.58,1.26,1.26,0,0,0,1.08.59c1.11,0,2.92-1.43,5.45-4.29Zm-18.7,1.38c1.69,0,3.27-1.44,4.73-4.3a17.69,17.69,0,0,0,2.2-8,4,4,0,0,0-.68-2.43,2.16,2.16,0,0,0-1.8-.9c-1.61,0-3.16,1.49-4.66,4.49a18.38,18.38,0,0,0-2.25,8.11,3.5,3.5,0,0,0,.66,2.25A2.19,2.19,0,0,0,329.19,105.89Z"/></svg>